<svg width="30" height="30" viewBox="0 0 30 30" fill="none" xmlns="http://www.w3.org/2000/svg">
<rect width="30" height="30" fill="white"/>
<path d="M9.375 14.6875H25.3125C25.644 14.6875 25.962 14.8192 26.1964 15.0536C26.4308 15.288 26.5625 15.606 26.5625 15.9375V25.3125C26.5625 25.644 26.4308 25.962 26.1964 26.1964C25.962 26.4308 25.644 26.5625 25.3125 26.5625H9.375C6.09812 26.5625 3.4375 23.9019 3.4375 20.625C3.4375 17.3481 6.09812 14.6875 9.375 14.6875Z" stroke="#FF5C26" stroke-width="0.5" stroke-linecap="round" stroke-linejoin="round"/>
<path d="M9.375 22.8125C10.5831 22.8125 11.5625 21.8331 11.5625 20.625C11.5625 19.4169 10.5831 18.4375 9.375 18.4375C8.16688 18.4375 7.1875 19.4169 7.1875 20.625C7.1875 21.8331 8.16688 22.8125 9.375 22.8125Z" stroke="#FF5C26" stroke-width="0.5" stroke-linecap="round" stroke-linejoin="round"/>
<path d="M7.1875 20.625H3.44M11.5625 20.625H26.5625M14.2237 26.5625V14.6875M20.4737 14.6875V26.5625M5.17687 24.8238C4.62543 24.2724 4.188 23.6178 3.88956 22.8974C3.59112 22.177 3.43752 21.4048 3.43752 20.625C3.43752 19.8452 3.59112 19.073 3.88956 18.3526C4.188 17.6322 4.62543 16.9776 5.17687 16.4263L16.4456 5.1575C16.5617 5.04128 16.6996 4.94908 16.8513 4.88618C17.0031 4.82327 17.1657 4.79089 17.33 4.79089C17.4943 4.79089 17.6569 4.82327 17.8087 4.88618C17.9604 4.94908 18.0983 5.04128 18.2144 5.1575L24.8431 11.7863C25.0775 12.0207 25.2091 12.3385 25.2091 12.67C25.2091 13.0015 25.0775 13.3193 24.8431 13.5538L23.7094 14.6875M15.3125 14.6875L21.5281 8.47188M13.0244 8.57875L19.1331 14.6875" stroke="#FF5C26" stroke-width="0.5" stroke-linecap="round" stroke-linejoin="round"/>
<path d="M9.375 26.5625C7.80028 26.5625 6.29005 25.9369 5.17655 24.8234C4.06306 23.7099 3.4375 22.1997 3.4375 20.625V4.6875C3.4375 4.35598 3.5692 4.03804 3.80362 3.80362C4.03804 3.5692 4.35598 3.4375 4.6875 3.4375H14.0625C14.394 3.4375 14.712 3.5692 14.9464 3.80362C15.1808 4.03804 15.3125 4.35598 15.3125 4.6875V6.29062M9.375 12.2281V3.4375M3.4375 9.52625H12.0769" stroke="#FF5C26" stroke-width="0.5" stroke-linecap="round" stroke-linejoin="round"/>
</svg>
