<svg width="24" height="24" viewBox="0 0 24 24" fill="none" xmlns="http://www.w3.org/2000/svg">
<path d="M11.646 18C11.646 18.1326 11.5933 18.2598 11.4996 18.3536C11.4058 18.4473 11.2786 18.5 11.146 18.5C7.486 18.5 4.5 15.601 4.5 12C4.5 8.399 7.487 5.5 11.146 5.5C14.351 5.5 17.041 7.725 17.659 10.698L18.569 9.158C18.6381 9.04732 18.7476 8.96801 18.8744 8.93701C19.0011 8.906 19.1349 8.92575 19.2473 8.99205C19.3596 9.05834 19.4416 9.16593 19.4758 9.29184C19.5099 9.41776 19.4935 9.55203 19.43 9.666L17.8 12.422C17.7334 12.5343 17.6255 12.6162 17.4994 12.65C17.3732 12.6838 17.2389 12.667 17.125 12.603L14.302 11.013C14.2447 10.9808 14.1944 10.9376 14.1538 10.8859C14.1133 10.8342 14.0833 10.775 14.0656 10.7117C14.0479 10.6484 14.0429 10.5823 14.0507 10.517C14.0586 10.4518 14.0793 10.3888 14.1115 10.3315C14.1437 10.2742 14.1869 10.2239 14.2386 10.1833C14.2903 10.1428 14.3495 10.1128 14.4128 10.0951C14.4761 10.0774 14.5422 10.0724 14.6075 10.0802C14.6727 10.0881 14.7357 10.1088 14.793 10.141L16.738 11.237C16.358 8.569 14.008 6.5 11.146 6.5C8.016 6.5 5.5 8.974 5.5 12C5.5 15.026 8.016 17.5 11.146 17.5C11.2786 17.5 11.4058 17.5527 11.4996 17.6464C11.5933 17.7402 11.646 17.8674 11.646 18Z" fill="white"/>
</svg>
